<svg width="24" height="24" viewBox="0 0 24 24" fill="none" xmlns="http://www.w3.org/2000/svg">
<path d="M21.6205 8.23839L12.4799 2.14465C12.1679 1.95266 11.8349 1.9509 11.5201 2.14465L2.37945 8.23839C2.14508 8.3946 2 8.67366 2 8.95265V15.0463C2 15.3254 2.14508 15.6044 2.37949 15.7606L11.5201 21.8552C11.8321 22.0472 12.1651 22.049 12.4799 21.8552L21.6205 15.7606C21.8549 15.6044 22 15.3254 22 15.0463V8.95265C22 8.67366 21.8549 8.3946 21.6205 8.23839ZM12.8594 4.46602L19.5893 8.95265L16.587 10.9616L12.8594 8.47273V4.46602ZM11.1406 4.46602V8.47273L7.41292 10.9616L4.4107 8.95265L11.1406 4.46602ZM3.71875 10.5598L5.87277 11.9995L3.71875 13.4392V10.5598ZM11.1406 19.533L4.4107 15.0464L7.41292 13.0374L11.1406 15.5263V19.533ZM12 14.0308L8.96424 11.9995L12 9.96827L15.0357 11.9995L12 14.0308ZM12.8594 19.533V15.5263L16.587 13.0374L19.5893 15.0464L12.8594 19.533ZM20.2812 13.4392L18.1272 11.9995L20.2812 10.5598V13.4392Z" fill="#ECE7E1"/>
</svg>
