<svg width="24" height="24" viewBox="0 0 24 24" fill="none" xmlns="http://www.w3.org/2000/svg">
<path d="M8.68952 17.9514C8.68952 18.032 8.59677 18.0965 8.47984 18.0965C8.34677 18.1086 8.25403 18.0441 8.25403 17.9514C8.25403 17.8707 8.34677 17.8062 8.46371 17.8062C8.58468 17.7941 8.68952 17.8586 8.68952 17.9514ZM7.43548 17.7699C7.40726 17.8506 7.4879 17.9433 7.60887 17.9675C7.71371 18.0078 7.83468 17.9675 7.85887 17.8869C7.88306 17.8062 7.80645 17.7135 7.68548 17.6772C7.58065 17.649 7.46371 17.6893 7.43548 17.7699ZM9.21774 17.7014C9.10081 17.7296 9.02016 17.8062 9.03226 17.899C9.04435 17.9796 9.14919 18.032 9.27016 18.0038C9.3871 17.9756 9.46774 17.899 9.45564 17.8183C9.44355 17.7417 9.33468 17.6893 9.21774 17.7014ZM11.871 2.24976C6.27823 2.24976 2 6.49572 2 12.0885C2 16.5602 4.81452 20.3869 8.83468 21.7336C9.35081 21.8264 9.53226 21.5078 9.53226 21.2457C9.53226 20.9957 9.52016 19.6167 9.52016 18.7699C9.52016 18.7699 6.69758 19.3748 6.10484 17.5683C6.10484 17.5683 5.64516 16.3949 4.98387 16.0925C4.98387 16.0925 4.06048 15.4594 5.04839 15.4715C5.04839 15.4715 6.05242 15.5522 6.60484 16.5119C7.4879 18.0683 8.96774 17.6207 9.54435 17.3546C9.6371 16.7094 9.89919 16.2619 10.1895 15.9957C7.93548 15.7457 5.66129 15.4191 5.66129 11.5401C5.66129 10.4312 5.96774 9.87476 6.6129 9.16508C6.50806 8.90298 6.16532 7.82234 6.71774 6.42718C7.56048 6.16508 9.5 7.51589 9.5 7.51589C10.3065 7.29008 11.1734 7.17314 12.0323 7.17314C12.8911 7.17314 13.7581 7.29008 14.5645 7.51589C14.5645 7.51589 16.504 6.16105 17.3468 6.42718C17.8992 7.82637 17.5565 8.90298 17.4516 9.16508C18.0968 9.87879 18.4919 10.4352 18.4919 11.5401C18.4919 15.4312 16.1169 15.7417 13.8629 15.9957C14.2339 16.3143 14.5484 16.9191 14.5484 17.8667C14.5484 19.2256 14.5363 20.907 14.5363 21.2377C14.5363 21.4998 14.7218 21.8183 15.2339 21.7256C19.2661 20.3869 22 16.5602 22 12.0885C22 6.49572 17.4637 2.24976 11.871 2.24976ZM5.91935 16.157C5.86694 16.1973 5.87903 16.2901 5.94758 16.3667C6.0121 16.4312 6.10484 16.4594 6.15726 16.407C6.20968 16.3667 6.19758 16.2739 6.12903 16.1973C6.06452 16.1328 5.97177 16.1046 5.91935 16.157ZM5.48387 15.8304C5.45565 15.8828 5.49597 15.9473 5.57661 15.9877C5.64113 16.028 5.72177 16.0159 5.75 15.9594C5.77823 15.907 5.7379 15.8425 5.65726 15.8022C5.57661 15.778 5.5121 15.7901 5.48387 15.8304ZM6.79032 17.2659C6.72581 17.3183 6.75 17.4393 6.84274 17.5159C6.93548 17.6086 7.05242 17.6207 7.10484 17.5562C7.15726 17.5038 7.13306 17.3828 7.05242 17.3062C6.96371 17.2135 6.84274 17.2014 6.79032 17.2659ZM6.33065 16.6731C6.26613 16.7135 6.26613 16.8183 6.33065 16.911C6.39516 17.0038 6.50403 17.0441 6.55645 17.0038C6.62097 16.9514 6.62097 16.8465 6.55645 16.7538C6.5 16.661 6.39516 16.6207 6.33065 16.6731Z" fill="#ECE7E1"/>
</svg>
